<svg id="visual" viewBox="0 0 900 600" width="900" height="600" xmlns="http://www.w3.org/2000/svg" xmlns:xlink="http://www.w3.org/1999/xlink" version="1.1"><path d="M0 61L15 62C30 63 60 65 90 68C120 71 150 75 180 80C210 85 240 91 270 98C300 105 330 113 360 109C390 105 420 89 450 92C480 95 510 117 540 127C570 137 600 135 630 130C660 125 690 117 720 118C750 119 780 129 810 125C840 121 870 103 885 94L900 85L900 0L885 0C870 0 840 0 810 0C780 0 750 0 720 0C690 0 660 0 630 0C600 0 570 0 540 0C510 0 480 0 450 0C420 0 390 0 360 0C330 0 300 0 270 0C240 0 210 0 180 0C150 0 120 0 90 0C60 0 30 0 15 0L0 0Z" fill="#837fff"></path><path d="M0 133L15 134C30 135 60 137 90 138C120 139 150 139 180 148C210 157 240 175 270 187C300 199 330 205 360 194C390 183 420 155 450 157C480 159 510 191 540 206C570 221 600 219 630 209C660 199 690 181 720 175C750 169 780 175 810 176C840 177 870 173 885 171L900 169L900 83L885 92C870 101 840 119 810 123C780 127 750 117 720 116C690 115 660 123 630 128C600 133 570 135 540 125C510 115 480 93 450 90C420 87 390 103 360 107C330 111 300 103 270 96C240 89 210 83 180 78C150 73 120 69 90 66C60 63 30 61 15 60L0 59Z" fill="#6462ff"></path><path d="M0 361L15 352C30 343 60 325 90 307C120 289 150 271 180 284C210 297 240 341 270 368C300 395 330 405 360 397C390 389 420 363 450 355C480 347 510 357 540 356C570 355 600 343 630 346C660 349 690 367 720 371C750 375 780 365 810 360C840 355 870 355 885 355L900 355L900 167L885 169C870 171 840 175 810 174C780 173 750 167 720 173C690 179 660 197 630 207C600 217 570 219 540 204C510 189 480 157 450 155C420 153 390 181 360 192C330 203 300 197 270 185C240 173 210 155 180 146C150 137 120 137 90 136C60 135 30 133 15 132L0 131Z" fill="#3d42ff"></path><path d="M0 493L15 496C30 499 60 505 90 504C120 503 150 495 180 497C210 499 240 511 270 522C300 533 330 543 360 536C390 529 420 505 450 501C480 497 510 513 540 514C570 515 600 501 630 504C660 507 690 527 720 530C750 533 780 519 810 511C840 503 870 501 885 500L900 499L900 353L885 353C870 353 840 353 810 358C780 363 750 373 720 369C690 365 660 347 630 344C600 341 570 353 540 354C510 355 480 345 450 353C420 361 390 387 360 395C330 403 300 393 270 366C240 339 210 295 180 282C150 269 120 287 90 305C60 323 30 341 15 350L0 359Z" fill="#3436df"></path><path d="M0 601L15 601C30 601 60 601 90 601C120 601 150 601 180 601C210 601 240 601 270 601C300 601 330 601 360 601C390 601 420 601 450 601C480 601 510 601 540 601C570 601 600 601 630 601C660 601 690 601 720 601C750 601 780 601 810 601C840 601 870 601 885 601L900 601L900 497L885 498C870 499 840 501 810 509C780 517 750 531 720 528C690 525 660 505 630 502C600 499 570 513 540 512C510 511 480 495 450 499C420 503 390 527 360 534C330 541 300 531 270 520C240 509 210 497 180 495C150 493 120 501 90 502C60 503 30 497 15 494L0 491Z" fill="#2a2bc0"></path></svg>