<svg id="visual" viewBox="0 0 960 540" width="960" height="540" xmlns="http://www.w3.org/2000/svg" xmlns:xlink="http://www.w3.org/1999/xlink" version="1.1"><rect x="0" y="0" width="960" height="540" fill="#ffffff"></rect><path d="M0 222L26.7 214.8C53.3 207.7 106.7 193.3 160 193.7C213.3 194 266.7 209 320 225.7C373.3 242.3 426.7 260.7 480 278.2C533.3 295.7 586.7 312.3 640 323.2C693.3 334 746.7 339 800 335.2C853.3 331.3 906.7 318.7 933.3 312.3L960 306L960 541L933.3 541C906.7 541 853.3 541 800 541C746.7 541 693.3 541 640 541C586.7 541 533.3 541 480 541C426.7 541 373.3 541 320 541C266.7 541 213.3 541 160 541C106.7 541 53.3 541 26.7 541L0 541Z" fill="#a093fa"></path><path d="M0 247L26.7 266.8C53.3 286.7 106.7 326.3 160 331C213.3 335.7 266.7 305.3 320 289C373.3 272.7 426.7 270.3 480 287C533.3 303.7 586.7 339.3 640 346.7C693.3 354 746.7 333 800 319.2C853.3 305.3 906.7 298.7 933.3 295.3L960 292L960 541L933.3 541C906.7 541 853.3 541 800 541C746.7 541 693.3 541 640 541C586.7 541 533.3 541 480 541C426.7 541 373.3 541 320 541C266.7 541 213.3 541 160 541C106.7 541 53.3 541 26.7 541L0 541Z" fill="#8674fd"></path><path d="M0 350L26.7 347.7C53.3 345.3 106.7 340.7 160 353C213.3 365.3 266.7 394.7 320 402.8C373.3 411 426.7 398 480 399.3C533.3 400.7 586.7 416.3 640 425C693.3 433.7 746.7 435.3 800 421.3C853.3 407.3 906.7 377.7 933.3 362.8L960 348L960 541L933.3 541C906.7 541 853.3 541 800 541C746.7 541 693.3 541 640 541C586.7 541 533.3 541 480 541C426.7 541 373.3 541 320 541C266.7 541 213.3 541 160 541C106.7 541 53.3 541 26.7 541L0 541Z" fill="#6b54fd"></path><path d="M0 446L26.7 441.3C53.3 436.7 106.7 427.3 160 423.3C213.3 419.3 266.7 420.7 320 426.7C373.3 432.7 426.7 443.3 480 442.3C533.3 441.3 586.7 428.7 640 436.8C693.3 445 746.7 474 800 487.3C853.3 500.7 906.7 498.3 933.3 497.2L960 496L960 541L933.3 541C906.7 541 853.3 541 800 541C746.7 541 693.3 541 640 541C586.7 541 533.3 541 480 541C426.7 541 373.3 541 320 541C266.7 541 213.3 541 160 541C106.7 541 53.3 541 26.7 541L0 541Z" fill="#492efc"></path></svg>