<svg id="visual" viewBox="0 0 900 600" width="900" height="600" xmlns="http://www.w3.org/2000/svg" xmlns:xlink="http://www.w3.org/1999/xlink" version="1.1"><rect x="0" y="0" width="900" height="600" fill="#ffffff"></rect><path d="M0 351L30 362.2C60 373.3 120 395.7 180 388.3C240 381 300 344 360 347.2C420 350.3 480 393.7 540 401.5C600 409.3 660 381.7 720 382.3C780 383 840 412 870 426.5L900 441L900 601L870 601C840 601 780 601 720 601C660 601 600 601 540 601C480 601 420 601 360 601C300 601 240 601 180 601C120 601 60 601 30 601L0 601Z" fill="#a093fa"></path><path d="M0 462L30 456.7C60 451.3 120 440.7 180 429.2C240 417.7 300 405.3 360 412.7C420 420 480 447 540 454.8C600 462.7 660 451.3 720 452.3C780 453.3 840 466.7 870 473.3L900 480L900 601L870 601C840 601 780 601 720 601C660 601 600 601 540 601C480 601 420 601 360 601C300 601 240 601 180 601C120 601 60 601 30 601L0 601Z" fill="#8978f7"></path><path d="M0 520L30 513.2C60 506.3 120 492.7 180 495.8C240 499 300 519 360 523.7C420 528.3 480 517.7 540 513.7C600 509.7 660 512.3 720 505.3C780 498.3 840 481.7 870 473.3L900 465L900 601L870 601C840 601 780 601 720 601C660 601 600 601 540 601C480 601 420 601 360 601C300 601 240 601 180 601C120 601 60 601 30 601L0 601Z" fill="#715df2"></path></svg>