<svg id="visual" viewBox="0 0 960 540" width="960" height="540" xmlns="http://www.w3.org/2000/svg" xmlns:xlink="http://www.w3.org/1999/xlink" version="1.1"><rect x="0" y="0" width="960" height="540" fill="#ffffff"></rect><path d="M0 316L32 326C64 336 128 356 192 349.3C256 342.7 320 309.3 384 312.2C448 315 512 354 576 361.2C640 368.3 704 343.7 768 344.2C832 344.7 896 370.3 928 383.2L960 396L960 541L928 541C896 541 832 541 768 541C704 541 640 541 576 541C512 541 448 541 384 541C320 541 256 541 192 541C128 541 64 541 32 541L0 541Z" fill="#a093fa"></path><path d="M0 416L32 411.2C64 406.3 128 396.7 192 386.3C256 376 320 365 384 371.7C448 378.3 512 402.7 576 409.7C640 416.7 704 406.3 768 407.2C832 408 896 420 928 426L960 432L960 541L928 541C896 541 832 541 768 541C704 541 640 541 576 541C512 541 448 541 384 541C320 541 256 541 192 541C128 541 64 541 32 541L0 541Z" fill="#8978f7"></path><path d="M0 467L32 461C64 455 128 443 192 446C256 449 320 467 384 471.3C448 475.7 512 466.3 576 462.8C640 459.3 704 461.7 768 455.2C832 448.7 896 433.3 928 425.7L960 418L960 541L928 541C896 541 832 541 768 541C704 541 640 541 576 541C512 541 448 541 384 541C320 541 256 541 192 541C128 541 64 541 32 541L0 541Z" fill="#715df2"></path></svg>