<svg id="visual" viewBox="0 0 1900 800" width="1900" height="800" xmlns="http://www.w3.org/2000/svg" xmlns:xlink="http://www.w3.org/1999/xlink" version="1.1"><rect x="0" y="0" width="1900" height="800" fill="#ffffff"></rect><defs><linearGradient id="grad1_0" x1="57.9%" y1="0%" x2="100%" y2="100%"><stop offset="2.5%" stop-color="#ffffff" stop-opacity="1"></stop><stop offset="97.5%" stop-color="#ffffff" stop-opacity="1"></stop></linearGradient></defs><defs><linearGradient id="grad2_0" x1="0%" y1="0%" x2="42.1%" y2="100%"><stop offset="2.5%" stop-color="#ffffff" stop-opacity="1"></stop><stop offset="97.5%" stop-color="#ffffff" stop-opacity="1"></stop></linearGradient></defs><g transform="translate(1900, 0)"><path d="M0 640C-73 644.2 -145.9 648.4 -197.8 608.7C-249.6 569 -280.4 485.4 -311.5 428.8C-342.6 372.1 -374.1 342.4 -428 310.9C-481.9 279.4 -558.2 246.2 -597.3 194.1C-636.3 141.9 -638.2 71 -640 0L0 0Z" fill="#fde80e"></path></g><g transform="translate(0, 800)"><path d="M0 -640C64.5 -611.2 129 -582.5 176.4 -543.1C223.9 -503.6 254.2 -453.6 311.5 -428.8C368.9 -404 453.2 -404.4 508.9 -369.7C564.6 -335 591.6 -265.2 608.7 -197.8C625.8 -130.3 632.9 -65.1 640 0L0 0Z" fill="#fde80e"></path></g></svg>