<svg id="visual" viewBox="0 0 1900 3000" width="1900" height="3000" xmlns="http://www.w3.org/2000/svg" xmlns:xlink="http://www.w3.org/1999/xlink" version="1.1"><path d="M0 241L39.7 271C79.3 301 158.7 361 237.8 366C317 371 396 321 475.2 291C554.3 261 633.7 251 712.8 266C792 281 871 321 950.2 346C1029.3 371 1108.7 381 1187.8 356C1267 331 1346 271 1425.2 246C1504.3 221 1583.7 231 1662.8 271C1742 311 1821 381 1860.5 416L1900 451L1900 0L1860.5 0C1821 0 1742 0 1662.8 0C1583.7 0 1504.3 0 1425.2 0C1346 0 1267 0 1187.8 0C1108.7 0 1029.3 0 950.2 0C871 0 792 0 712.8 0C633.7 0 554.3 0 475.2 0C396 0 317 0 237.8 0C158.7 0 79.3 0 39.7 0L0 0Z" fill="#a8a8ff"></path><path d="M0 421L39.7 456C79.3 491 158.7 561 237.8 586C317 611 396 591 475.2 571C554.3 551 633.7 531 712.8 541C792 551 871 591 950.2 621C1029.3 651 1108.7 671 1187.8 636C1267 601 1346 511 1425.2 466C1504.3 421 1583.7 421 1662.8 471C1742 521 1821 621 1860.5 671L1900 721L1900 449L1860.5 414C1821 379 1742 309 1662.8 269C1583.7 229 1504.3 219 1425.2 244C1346 269 1267 329 1187.8 354C1108.7 379 1029.3 369 950.2 344C871 319 792 279 712.8 264C633.7 249 554.3 259 475.2 289C396 319 317 369 237.8 364C158.7 359 79.3 299 39.7 269L0 239Z" fill="#9a9bff"></path><path d="M0 871L39.7 876C79.3 881 158.7 891 237.8 891C317 891 396 881 475.2 896C554.3 911 633.7 951 712.8 991C792 1031 871 1071 950.2 1086C1029.3 1101 1108.7 1091 1187.8 1081C1267 1071 1346 1061 1425.2 1026C1504.3 991 1583.7 931 1662.8 926C1742 921 1821 971 1860.5 996L1900 1021L1900 719L1860.5 669C1821 619 1742 519 1662.8 469C1583.7 419 1504.3 419 1425.2 464C1346 509 1267 599 1187.8 634C1108.7 669 1029.3 649 950.2 619C871 589 792 549 712.8 539C633.7 529 554.3 549 475.2 569C396 589 317 609 237.8 584C158.7 559 79.3 489 39.7 454L0 419Z" fill="#8c8eff"></path><path d="M0 1441L39.7 1486C79.3 1531 158.7 1621 237.8 1636C317 1651 396 1591 475.2 1556C554.3 1521 633.7 1511 712.8 1576C792 1641 871 1781 950.2 1796C1029.3 1811 1108.7 1701 1187.8 1701C1267 1701 1346 1811 1425.2 1851C1504.3 1891 1583.7 1861 1662.8 1851C1742 1841 1821 1851 1860.5 1856L1900 1861L1900 1019L1860.5 994C1821 969 1742 919 1662.8 924C1583.7 929 1504.3 989 1425.2 1024C1346 1059 1267 1069 1187.8 1079C1108.7 1089 1029.3 1099 950.2 1084C871 1069 792 1029 712.8 989C633.7 949 554.3 909 475.2 894C396 879 317 889 237.8 889C158.7 889 79.3 879 39.7 874L0 869Z" fill="#7d81ff"></path><path d="M0 2491L39.7 2461C79.3 2431 158.7 2371 237.8 2366C317 2361 396 2411 475.2 2436C554.3 2461 633.7 2461 712.8 2451C792 2441 871 2421 950.2 2406C1029.3 2391 1108.7 2381 1187.8 2386C1267 2391 1346 2411 1425.2 2446C1504.3 2481 1583.7 2531 1662.8 2551C1742 2571 1821 2561 1860.5 2556L1900 2551L1900 1859L1860.5 1854C1821 1849 1742 1839 1662.8 1849C1583.7 1859 1504.3 1889 1425.2 1849C1346 1809 1267 1699 1187.8 1699C1108.7 1699 1029.3 1809 950.2 1794C871 1779 792 1639 712.8 1574C633.7 1509 554.3 1519 475.2 1554C396 1589 317 1649 237.8 1634C158.7 1619 79.3 1529 39.7 1484L0 1439Z" fill="#7275f8"></path><path d="M0 2731L39.7 2721C79.3 2711 158.7 2691 237.8 2711C317 2731 396 2791 475.2 2791C554.3 2791 633.7 2731 712.8 2716C792 2701 871 2731 950.2 2746C1029.3 2761 1108.7 2761 1187.8 2746C1267 2731 1346 2701 1425.2 2701C1504.3 2701 1583.7 2731 1662.8 2746C1742 2761 1821 2761 1860.5 2761L1900 2761L1900 2549L1860.5 2554C1821 2559 1742 2569 1662.8 2549C1583.7 2529 1504.3 2479 1425.2 2444C1346 2409 1267 2389 1187.8 2384C1108.7 2379 1029.3 2389 950.2 2404C871 2419 792 2439 712.8 2449C633.7 2459 554.3 2459 475.2 2434C396 2409 317 2359 237.8 2364C158.7 2369 79.3 2429 39.7 2459L0 2489Z" fill="#6869f2"></path><path d="M0 3001L39.7 3001C79.3 3001 158.7 3001 237.8 3001C317 3001 396 3001 475.2 3001C554.3 3001 633.7 3001 712.8 3001C792 3001 871 3001 950.2 3001C1029.3 3001 1108.7 3001 1187.8 3001C1267 3001 1346 3001 1425.2 3001C1504.3 3001 1583.7 3001 1662.8 3001C1742 3001 1821 3001 1860.5 3001L1900 3001L1900 2759L1860.5 2759C1821 2759 1742 2759 1662.8 2744C1583.7 2729 1504.3 2699 1425.2 2699C1346 2699 1267 2729 1187.8 2744C1108.7 2759 1029.3 2759 950.2 2744C871 2729 792 2699 712.8 2714C633.7 2729 554.3 2789 475.2 2789C396 2789 317 2729 237.8 2709C158.7 2689 79.3 2709 39.7 2719L0 2729Z" fill="#5d5deb"></path></svg>