<svg id="visual" viewBox="0 0 1900 1200" width="1900" height="1200" xmlns="http://www.w3.org/2000/svg" xmlns:xlink="http://www.w3.org/1999/xlink" version="1.1"><rect width="1900" height="1200" fill="#ffffff"></rect><g><g transform="translate(1654 572)"><path d="M128 -98C163.4 -57.6 188.1 -4.5 181.7 48.7C175.3 102 138 155.4 84.6 184.5C31.2 213.6 -38.1 218.4 -97.7 193.3C-157.3 168.3 -207.2 113.5 -220.7 51.3C-234.3 -11 -211.4 -80.7 -168.5 -122.8C-125.7 -164.9 -62.8 -179.4 -8.3 -172.8C46.2 -166.2 92.5 -138.4 128 -98Z" fill="none" stroke="#5F49F2" stroke-width="20"></path></g><g transform="translate(842 1095)"><path d="M90.9 -79.8C110.4 -47.9 113.9 -10.6 107.3 27C100.8 64.6 84.2 102.5 56.2 115.5C28.2 128.5 -11.1 116.6 -47.1 98.8C-83.1 81.1 -115.9 57.5 -122.7 27.9C-129.5 -1.6 -110.3 -37.2 -85.5 -70.2C-60.8 -103.2 -30.4 -133.7 2.6 -135.8C35.7 -137.9 71.3 -111.6 90.9 -79.8Z" fill="none" stroke="#5F49F2" stroke-width="20"></path></g><g transform="translate(484 516)"><path d="M142.7 -106.1C180.1 -66.8 202.4 -7.8 192.8 47.9C183.2 103.6 141.8 155.9 92.1 172.7C42.5 189.4 -15.3 170.5 -64.5 143.2C-113.7 115.9 -154.4 80.2 -166.7 35.5C-178.9 -9.2 -162.7 -63 -130.2 -101.2C-97.6 -139.3 -48.8 -161.9 1.9 -163.4C52.6 -164.9 105.2 -145.4 142.7 -106.1Z" fill="none" stroke="#5F49F2" stroke-width="20"></path></g><g transform="translate(962 251)"><path d="M127.5 -108.7C150.9 -72.2 145.9 -20 131.1 24C116.3 68.1 91.9 104.1 57 122.5C22.1 140.9 -23.3 141.7 -63.6 125C-104 108.3 -139.3 74.1 -153.1 30.2C-166.9 -13.7 -159.2 -67.2 -130.1 -105C-101 -142.7 -50.5 -164.5 0.8 -165.1C52 -165.7 104 -145.1 127.5 -108.7Z" fill="none" stroke="#5F49F2" stroke-width="20"></path></g><g transform="translate(13 99)"><path d="M74.4 -66.6C91.1 -38.4 95.6 -7.8 92.1 26.4C88.6 60.6 77.1 98.3 50.7 114.5C24.4 130.6 -16.7 125.3 -45.9 106.8C-75 88.3 -92.3 56.7 -96.7 25.5C-101.1 -5.6 -92.6 -36.3 -74.3 -64.9C-56 -93.5 -28 -119.9 0.4 -120.3C28.8 -120.6 57.7 -94.8 74.4 -66.6Z" fill="none" stroke="#5F49F2" stroke-width="20"></path></g><g transform="translate(124 1043)"><path d="M102.4 -78.6C125.1 -53.2 130.6 -11 124.3 33.1C118 77.2 99.7 123.2 65.7 141.6C31.7 160 -18.2 150.6 -54.3 127.5C-90.5 104.4 -112.9 67.7 -123 27.1C-133.1 -13.6 -130.8 -58 -108.2 -83.4C-85.7 -108.9 -42.8 -115.2 -1.5 -114C39.8 -112.8 79.7 -104.1 102.4 -78.6Z" fill="none" stroke="#5F49F2" stroke-width="20"></path></g><g transform="translate(1862 1185)"><path d="M93.9 -72.6C118.1 -44.6 131.6 -5.7 127.6 36.1C123.6 77.9 102.2 122.8 63.6 147.2C25 171.6 -30.8 175.7 -68 153.1C-105.2 130.6 -123.8 81.6 -129.2 35.8C-134.6 -9.9 -126.7 -52.3 -103 -80.2C-79.2 -108.1 -39.6 -121.5 -2.4 -119.6C34.9 -117.7 69.7 -100.6 93.9 -72.6Z" fill="none" stroke="#5F49F2" stroke-width="20"></path></g><g transform="translate(1721 13)"><path d="M78.7 -68.2C95 -42.3 96.4 -10 88 17.3C79.5 44.5 61.1 66.7 35.1 83.2C9 99.7 -24.7 110.6 -46.5 99.1C-68.2 87.6 -78 53.8 -79.5 24.6C-81.1 -4.7 -74.5 -29.4 -59.9 -54.9C-45.2 -80.4 -22.6 -106.7 4.3 -110.1C31.2 -113.5 62.4 -94.1 78.7 -68.2Z" fill="none" stroke="#5F49F2" stroke-width="20"></path></g></g></svg>