<svg xmlns="http://www.w3.org/2000/svg" version="1.1" xmlns:xlink="http://www.w3.org/1999/xlink" xmlns:svgjs="http://svgjs.dev/svgjs" viewBox="0 0 800 400"><path d="M39.91031265258789,28.69955062866211C40.209266662597656,32.28699493408203,40.059791564941406,43.19880485534668,41.704036712646484,50.22421646118164C43.34828186035156,57.2496280670166,46.18833986918131,64.12556266784668,49.77578353881836,70.85202026367188C53.363227208455406,77.57847785949707,57.84753227233887,83.70702870686848,63.22869873046875,90.58296203613281C68.60986518859863,97.45889536539714,75.33632532755534,105.97907002766927,82.06278228759766,112.10762023925781C88.78923924763997,118.23617045084636,95.66517003377278,122.42152659098308,103.58744049072266,127.35426330566406C111.50971094767253,132.28700002034506,125.1120999654134,139.31241099039713,129.59640502929688,141.70404052734375C134.08071009318033,144.09567006429037,124.96262613932292,140.2092717488607,130.49327087402344,141.70404052734375C136.02391560872397,143.1988093058268,151.56951141357422,148.43050130208334,162.7802734375,150.6726531982422C173.99103546142578,152.91480509440103,186.09865061442056,153.6621856689453,197.75784301757812,155.15695190429688C209.4170354207357,156.65171813964844,221.22571309407553,157.69805145263672,232.7354278564453,159.64125061035156C244.2451426188151,161.5844497680664,254.8579839070638,164.8729476928711,266.8161315917969,166.81614685058594C278.77427927652997,168.75934600830078,290.8819224039714,169.50672403971353,304.48431396484375,171.30044555664062C318.0867055257161,173.09416707356772,334.08070882161456,175.6352767944336,348.43048095703125,177.57847595214844C362.78025309244794,179.52167510986328,374.88787841796875,181.01644134521484,390.58294677734375,182.9596405029297C406.27801513671875,184.90283966064453,425.56053161621094,186.24813334147134,442.60089111328125,189.2376708984375C459.64125061035156,192.22720845540366,476.6816101074219,197.6083755493164,492.8251037597656,200.89686584472656C508.9685974121094,204.18535614013672,526.3078867594401,207.77279917399088,539.4618530273438,208.96861267089844C552.6158192952474,210.164426167806,559.9402262369791,206.8759333292643,571.7489013671875,208.07174682617188C583.5575764973959,209.26756032307944,597.7578531901041,212.25709533691406,610.3139038085938,216.14349365234375C622.8699544270834,220.02989196777344,638.1165974934896,224.96263122558594,647.085205078125,231.39013671875C656.0538126627604,237.81764221191406,658.8938598632812,246.03886922200522,664.1255493164062,254.70852661132812C669.3572387695312,263.37818400065106,673.0941772460938,272.49627176920575,678.475341796875,283.4080810546875C683.8565063476562,294.31989034016925,693.2735290527344,308.66966756184894,696.4125366210938,320.17938232421875C699.5515441894531,331.68909708658856,696.562001546224,342.451421101888,697.3093872070312,352.46636962890625C698.0567728678385,362.4813181559245,700.2989400227865,375.6352895100911,700.8968505859375,380.2690734863281" fill="none" stroke-width="5" stroke="url(&quot;#SvgjsLinearGradient1006&quot;)" stroke-linecap="round" stroke-dasharray="7 12"></path><defs><linearGradient id="SvgjsLinearGradient1006"><stop stop-color="#5f49f2" offset="0"></stop><stop stop-color="#3a2d91" offset="1"></stop></linearGradient></defs></svg>