<svg xmlns="http://www.w3.org/2000/svg" version="1.1" xmlns:xlink="http://www.w3.org/1999/xlink" xmlns:svgjs="http://svgjs.dev/svgjs" viewBox="0 0 800 400"><path d="M21.07623291015625,378.475341796875C23.019432067871094,367.56353251139325,28.101645787556965,336.7713038126628,32.73542785644531,313.0044860839844C37.36920992533366,289.23766835530597,42.89985275268555,262.6307881673177,48.87892532348633,235.8744354248047C54.85799789428711,209.11808268229166,61.43497530619303,176.6816151936849,68.60986328125,152.46636962890625C75.78475125630696,128.2511240641276,79.8206303914388,106.57698313395183,91.92825317382812,90.58296203613281C104.03587595621745,74.5889409383138,123.01942698160808,62.481316884358726,141.25559997558594,56.50224304199219C159.4917729695638,50.52316919962565,184.15545399983725,52.46636708577474,201.3452911376953,54.708518981933594C218.53512827555338,56.950670878092446,233.1838607788086,60.53811391194662,244.39462280273438,69.95515441894531C255.60538482666016,79.37219492594402,262.48131306966144,97.90732320149739,268.60986328125,111.21076202392578C274.73841349283856,124.51420084635417,276.98057047526044,135.27653376261392,281.1659240722656,149.77578735351562C285.3512776692708,164.27504094441733,289.6861114501953,183.55755360921225,293.72198486328125,198.20628356933594C297.7578582763672,212.85501352945963,303.43796793619794,231.0911865234375,305.38116455078125,237.6681671142578C307.32436116536456,244.24514770507812,302.6905822753906,231.091189066569,305.38116455078125,237.6681671142578C308.0717468261719,244.24514516194662,315.2466328938802,265.7697982788086,321.524658203125,277.1300354003906C327.8026835123698,288.49027252197266,333.48279825846356,297.0104573567708,343.04931640625,305.82958984375C352.61583455403644,314.6487223307292,366.81614176432294,323.61732482910156,378.92376708984375,330.0448303222656C391.03139241536456,336.4723358154297,402.5411071777344,342.30194600423175,415.695068359375,344.3946228027344C428.8490295410156,346.487299601237,443.4977569580078,344.24513753255206,457.8475341796875,342.60089111328125C472.1973114013672,340.95664469401044,488.6397705078125,338.41554260253906,501.7937316894531,334.5291442871094C514.9476928710938,330.6427459716797,524.0657704671224,326.60686747233075,536.7713012695312,319.2825012207031C549.4768320719401,311.9581349690755,567.4140625,303.4379526774089,578.0269165039062,290.58294677734375C588.6397705078125,277.7279408772786,594.4693501790365,259.6412531534831,600.4484252929688,242.1524658203125C606.427500406901,224.66367848714194,611.6592102050781,195.51569366455078,613.9013671875,185.6502227783203C616.1435241699219,175.78475189208984,611.9581705729166,190.5829594930013,613.9013671875,182.9596405029297C615.8445638020834,175.33632151285806,623.9163004557291,155.60537592569986,625.560546875,139.91030883789062C627.2047932942709,124.21524175008138,623.6173706054688,104.93273480733235,623.766845703125,88.78923797607422C623.9163208007812,72.64574114481609,626.3079223632812,56.65171957015991,626.4573974609375,43.0493278503418C626.6068725585938,29.44693613052368,624.962646484375,13.153961022694904,624.6636962890625,7.174887657165527" fill="none" stroke-width="6" stroke="url(&quot;#SvgjsLinearGradient1008&quot;)" stroke-linecap="round" stroke-dasharray="8 13"></path><defs><linearGradient id="SvgjsLinearGradient1008"><stop stop-color="#392c91" offset="0"></stop><stop stop-color="#5f49f2" offset="1"></stop></linearGradient></defs></svg>